<?xml version="1.0" encoding="UTF-8"?>
<svg width="35px" height="26px" viewBox="0 0 35 26" version="1.1" xmlns="http://www.w3.org/2000/svg" xmlns:xlink="http://www.w3.org/1999/xlink">
    <g id="LOGO" stroke="none" stroke-width="1" fill="none" fill-rule="evenodd">
        <g id="输入法-全系列" transform="translate(-1839.000000, -436.000000)" fill="#262626" fill-rule="nonzero">
            <g id="编组-26" transform="translate(69.000000, 157.000000)">
                <g id="编组-4" transform="translate(15.000000, 40.000000)">
                    <g id="编组-3备份-2" transform="translate(0.000000, 208.000000)">
                        <path d="M1785.95347,31 C1788.16261,31 1789.95347,32.790861 1789.95347,35 L1789.95347,53 C1789.95347,55.209139 1788.16261,57 1785.95347,57 L1765.92308,57 C1764.6812,57 1763.50977,56.4231838 1762.75258,55.438843 L1755.8295,46.438843 C1754.7235,45.001036 1754.7235,42.998964 1755.8295,41.561157 L1762.75258,32.561157 C1763.50977,31.5768162 1764.6812,31 1765.92308,31 L1785.95347,31 Z M1785.95347,33.5 L1765.92308,33.5 C1765.45737,33.5 1765.01809,33.7163061 1764.73414,34.0854339 L1757.81106,43.0854339 C1757.39631,43.6246115 1757.39631,44.3753885 1757.81106,44.9145661 L1764.73414,53.9145661 C1765.01809,54.2836939 1765.45737,54.5 1765.92308,54.5 L1785.95347,54.5 C1786.7819,54.5 1787.45347,53.8284271 1787.45347,53 L1787.45347,35 C1787.45347,34.1715729 1786.7819,33.5 1785.95347,33.5 Z M1773.37504,39.4061165 L1776.20347,42.2345436 L1779.0319,39.4061165 C1779.52005,38.9179612 1780.31151,38.9179612 1780.79967,39.4061165 C1781.28782,39.8942719 1781.28782,40.6857281 1780.79967,41.1738835 L1777.97124,44.0023106 L1780.79967,46.8307377 C1781.28782,47.3188931 1781.28782,48.1103493 1780.79967,48.5985047 C1780.31151,49.08666 1779.52005,49.08666 1779.0319,48.5985047 L1776.20347,45.7700776 L1773.37504,48.5985047 C1772.88689,49.08666 1772.09543,49.08666 1771.60728,48.5985047 C1771.11912,48.1103493 1771.11912,47.3188931 1771.60728,46.8307377 L1774.4357,44.0023106 L1771.60728,41.1738835 C1771.11912,40.6857281 1771.11912,39.8942719 1771.60728,39.4061165 C1772.09543,38.9179612 1772.88689,38.9179612 1773.37504,39.4061165 Z" id="形状结合"></path>
                    </g>
                </g>
            </g>
        </g>
    </g>
</svg>