<?xml version="1.0" encoding="UTF-8"?>
<svg width="32px" height="33px" viewBox="0 0 32 33" version="1.1" xmlns="http://www.w3.org/2000/svg" xmlns:xlink="http://www.w3.org/1999/xlink">
    <g id="LOGO" stroke="none" stroke-width="1" fill="none" fill-rule="evenodd">
        <g id="输入法-全系列" transform="translate(-185.000000, -433.000000)" fill="#262626" fill-rule="nonzero">
            <g id="编组-26" transform="translate(69.000000, 157.000000)">
                <g id="编组-4" transform="translate(15.000000, 40.000000)">
                    <g id="编组-3备份-2" transform="translate(0.000000, 208.000000)">
                        <g id="矩形" transform="translate(101.000000, 28.000000)">
                            <path d="M17.7793521,0.636620961 C17.841932,0.694574537 17.9014577,0.755851877 17.95768,0.820196642 L31.3932544,16.1968164 C32.2746058,17.2054972 32.1852735,18.7500161 31.193725,19.6465958 C30.7540253,20.0441819 30.1861881,20.2637988 29.5978971,20.2637988 L24.5909132,20.2637988 L24.5909132,33 L7.77637283,33 L7.77637283,20.2637988 L2.40207719,20.2637988 C1.07544659,20.2637988 0,19.1697703 0,17.8202177 C0,17.2117601 0.223147352,16.6251902 0.625791552,16.1752486 L14.386037,0.798628865 C15.2790977,-0.199336956 16.7983366,-0.271870366 17.7793521,0.636620961 Z M16.1560191,3.35569496 L3.7613008,17.2083566 L10.7789693,17.2093224 L10.7789693,29.9455235 L21.5883167,29.9455235 L21.5883167,17.2093224 L28.2600861,17.2083566 L16.1560191,3.35569496 Z"></path>
                        </g>
                    </g>
                </g>
            </g>
        </g>
    </g>
</svg>